<svg version="1.2" xmlns="http://www.w3.org/2000/svg" viewBox="0 0 3952 1936" width="1200" height="588">
	<title>805811_file-ai</title>
	<defs>
		<radialGradient id="g1" cx="2530.4" cy="718.1" r="592.1" gradientUnits="userSpaceOnUse">
			<stop offset="0" stop-color="#f7931d"/>
			<stop offset="1" stop-color="#ee4036"/>
		</radialGradient>
		<radialGradient id="g2" cx="2688.1" cy="888.9" r="612.9" gradientUnits="userSpaceOnUse">
			<stop offset="0" stop-color="#fff100"/>
			<stop offset="1" stop-color="#fbb016"/>
		</radialGradient>
		<radialGradient id="g3" cx="3119.6" cy="937.3" r="420.3" gradientUnits="userSpaceOnUse">
			<stop offset="0" stop-color="#8a5d3b"/>
			<stop offset="1" stop-color="#3b2313"/>
		</radialGradient>
		<linearGradient id="g4" x1="1881" y1="1460.8" x2="1881" y2="1334.4" gradientUnits="userSpaceOnUse">
			<stop offset="0" stop-color="#d5de21"/>
			<stop offset="1" stop-color="#34b449"/>
		</linearGradient>
	</defs>
	<style>
		.s0 { fill: #231f20 } 
		.s1 { fill: #fefefe } 
		.s2 { mix-blend-mode: multiply;fill: url(#g1) } 
		.s3 { mix-blend-mode: multiply;fill: url(#g2) } 
		.s4 { mix-blend-mode: multiply;fill: url(#g3) } 
		.s5 { fill: url(#g4) } 
	</style>
	<g id="_Artboards_">
	</g>
	<g id="Layer 1">
	</g>
	<g id="Isolation Mode">
	</g>
	<g id="Layer 5">
		<g id="&lt;Group&gt;">
			<g id="&lt;Group&gt;">
				<g id="&lt;Group&gt;">
				</g>
			</g>
			<g id="Folder 1">
				<path id="&lt;Path&gt;" class="s0" d="m931.9 1202h-46.7l207.5-199.1 194.9 199.1h-45.5z"/>
				<path id="&lt;Path&gt;" class="s1" d="m924.9 1212.5h0.6v91h25.3 273.2 24.6v-91h0.8l-155.9-158.4z"/>
				<path id="&lt;Path&gt;" class="s0" d="m942.3 1366.3v-158.4l150.7-141.6 138.8 141.1v158.9z"/>
				<path id="&lt;Compound Path&gt;" fill-rule="evenodd" class="s0" d="m860.4 1382.3q0 0.2 0 0.4h-52.2q0.1-1.7 0.3-3.3 1.3-15.2 2-30.5c1-20.5 1.1-41 0.4-61.4-0.7-18.8-2-37.6-4.2-56.2q-0.3-2.5-0.6-5c-2.6-20.3-6.1-40.5-10.7-60.3-4.7-19.9-10.5-39.4-17.7-58.4q-5.4-14.2-11.9-28l-1.6-3.4-1.7-3.5-1.7-3.3-1.7-3.4-1.8-3.3-0.9-1.7-0.1-0.2-0.1-0.1q0.1 0 0.1 0.1l-0.2-0.4-0.5-0.8-3.9-6.8c-10.5-17.8-21.6-35.1-34.2-50.9-6.3-7.8-13.1-15.3-20.3-22.1q-3.9-3.7-8-7.1c0.6 2.3 1.2 4.6 1.9 6.8l1.1 3.8 0.2 0.9 0.1 0.1c0 0-0.1 0.8-0.1 0.5l0.1 0.1v0.3l0.1 0.6q0.2 1 0.4 2 0.9 4.2 1.4 8.4c0.8 5.5 1.3 11.1 1.5 16.8 0.1 2.8 0 5.6 0 8.5q-0.1 4.3-0.3 8.7c-0.5 11.7-1.9 23.8-5.1 35.9-1.6 6-3.7 12-6.4 17.8q-2 4.3-4.6 8.4c-0.9 1.4-1.8 2.8-2.7 4.1q-1.5 1.9-3.2 3.8l-1.8-0.5q-0.6-2.4-1.1-4.7-0.5-2.3-0.9-4.5-1-4.5-1.8-8.8c-1.1-5.8-2.2-11.4-3.1-17.1-2-11.2-3.5-22.4-4.3-34.1q-0.3-4.4-0.4-8.8c-0.1-3-0.1-5.9 0-9 0.3-6 1-12.1 2.4-18.2q1-4.6 2.6-9.1 0.4-1.1 0.8-2.3l0.2-0.5 0.1-0.3 0.1-0.1q0 0 0 0c0 0.1 0 0.3 0 0.4v-0.1l0.4-1.3q0.5-1.2 1-2.4 0.5-1.3 1.1-2.5 0.9-1.8 1.9-3.6-5 3.6-9.9 7c-7.2 4.9-14.2 9.7-20.8 14.5q-4.9 3.6-9.6 7.2-4.6 3.6-9.1 7.4c-2.9 2.5-5.8 5-8.5 7.7q-2.1 2-4.1 4.1-0.9 1-1.9 2.1l-0.2 0.2-0.2 0.2q0.1-0.1 0.2-0.2l-0.1 0.1-0.5 0.6-0.9 1c-4.9 5.8-9.3 12.1-13.4 18.9-4 6.9-7.8 14.3-11.5 22-3.6 7.8-7.2 15.9-11.2 24.1-1.9 4.1-4 8.2-6.2 12.3-1.1 2.1-2.2 4.1-3.4 6.1-1.2 2-2.4 4-3.8 6l-1.8-0.5q-0.3-3.5-0.4-7-0.1-3.5-0.2-6.9-0.2-6.9 0-13.8c0.3-9.1 0.9-18.4 2.4-27.7 1.5-9.4 3.9-18.8 7.4-28.1 3.5-9.3 8.3-18.5 14.4-26.9l1.2-1.6 0.5-0.7 0.8-0.9q1.2-1.5 2.5-3 2.5-2.9 5.2-5.6c3.5-3.7 7.3-7.1 11.3-10.2q6-4.7 12.6-8.4c4.3-2.6 8.8-4.7 13.3-6.6q7.2-2.9 14.6-4.8l-9.4-0.2-12-0.3q-6-0.1-11.8-0.1c-4 0-7.9-0.1-11.8 0q-2.9 0-5.9 0.1-1.4 0.1-2.9 0.2l-2.9 0.1c-15.6 1-31.1 3.2-46.4 7.3-7.7 2-15.4 4.5-23.2 7.5q-5.8 2.3-11.6 4.9-3 1.4-5.9 2.8l-6.1 3-1.3-1.3c3.8-8.4 9.3-16 15.7-22.8 6.4-6.8 13.9-12.7 21.9-17.7 8.1-4.9 16.8-8.9 25.7-12 9-3.1 18.3-5.2 27.6-6.5q1.8-0.2 3.5-0.5 1.8-0.1 3.6-0.3 3.5-0.3 7-0.5c4.7-0.2 9.4-0.2 14.1 0q4.3 0.3 8.6 0.8c-9.4-4.4-19.5-7.4-30.2-9.1-10.6-1.8-21.9-2.2-33.7-1.6q-4.4 0.2-8.9 0.6-2.3 0.3-4.6 0.5l-2.3 0.3-0.6 0.1h-0.3-0.1-0.1q0 0 0 0 0 0-0.2 0.1h-0.3l-0.5 0.1q-0.4 0.1-0.8 0.1c-2.1 0.3-4.1 0.2-6 0-1.9-0.2-3.7-0.6-5.5-1.1-3.4-1-6.4-2.4-9.4-3.9l0.1-1.9c3.3-0.9 6.6-1.6 9.5-2.6 2.9-0.9 5.4-2 7.2-3.5q0.1-0.1 0.3-0.3 0 0 0.1-0.1l0.3-0.2q-0.1 0.1-0.2 0.1 0 0 0 0l0.1-0.1 0.1-0.1 0.3-0.2 0.5-0.3q1.1-0.8 2.1-1.5 2.2-1.4 4.4-2.7 4.5-2.6 9.2-4.8c12.6-5.8 26.8-9.1 41.3-9.3 7.3-0.1 14.6 0.6 21.9 2 7.2 1.5 14.3 3.8 21.1 6.8 4.4 2 8.6 4.3 12.7 6.9q-0.2-0.8-0.4-1.7l-0.2-0.8v-0.2-0.1l-0.2-0.9c-0.3-1.4-0.7-2.8-1.2-4.3q-0.6-2.1-1.5-4.2l-0.4-1-0.2-0.5-0.3-0.8-0.2-0.4-0.2-0.4-0.4-1q-0.9-1.8-2-3.6c-0.7-1.2-1.6-2.3-2.4-3.5-3.5-4.6-8.2-9.1-13.8-13.4-5.6-4.3-12.1-8.5-18.8-12.9-3.3-2.3-6.7-4.6-10.1-7l-2.5-1.9-1.3-1-0.6-0.5-0.3-0.2-0.2-0.1c0.1 0 0.2 0.1 0.3 0.1q0 0-0.1 0v-0.1h-0.1c-1.2-1.1-2.7-2.2-4.4-3.4-3.2-2.3-6.8-4.7-10.1-7.7-1.7-1.4-3.3-3.1-4.7-4.9q-0.6-0.7-1.1-1.4-0.4-0.7-0.8-1.4-0.9-1.6-1.4-3.2l1.6-1c3.3 2.1 6.9 3 10.6 3.7 3.7 0.7 7.6 1.2 11.7 1.9 2.1 0.4 4.3 0.8 6.6 1.5h0.1c0.1 0.1 0.3 0.2 0.3 0.2l0.2 0.1 0.3 0.1 0.7 0.2 1.4 0.4 2.8 0.9c3.7 1.2 7.5 2.3 11.3 3.5 7.7 2.5 15.6 5.2 23.6 9.1 4.1 2 8.1 4.2 12 6.9q3 2.1 5.9 4.4 2.9 2.4 5.5 5.1c1.8 1.8 3.5 3.8 5.1 5.8q1.2 1.5 2.4 3.1 1.1 1.6 2.1 3.3 0.5 0.9 1 1.7l0.5 0.9 0.5 0.9 0.2 0.3 0.1 0.2-0.1-0.1 0.1 0.1v0.1l0.5 0.8q0.4 0.8 0.8 1.7 1.7 3.4 3 6.9c0.9 2.3 1.7 4.7 2.3 7.1l0.5 1.8 0.1 0.3v0.1l0.1 0.4c1.4-3.9 3.1-7.8 5.1-11.5 4.1-7.4 9.5-14.1 15.7-19.6l0.6-0.6 0.5-0.4 0.2-0.2 1.2-0.9c0.8-0.7 1.5-1.3 2.3-1.9q2.4-1.9 4.9-3.6c1.7-1.1 3.4-2.2 5.1-3.2q2.5-1.5 5.2-2.8c7-3.6 14.2-6.3 21.4-8.3 7.1-2.1 14.3-3.4 21.3-4.3 7.1-1 14-1.5 20.9-1.7 6.8-0.3 13.6-0.3 20.4-0.2 6.9 0 13.7 0.2 20.8 0.4l0.5 1.8c-5.7 4.3-12 7.7-18.3 10.8-6.3 3.1-12.6 5.8-18.9 8.3-12.6 5.1-24.9 9.6-35.8 14.8q-8.2 3.9-15.3 8.4-1.8 1.2-3.5 2.4c-1.1 0.8-2.2 1.6-3.3 2.4q-1.6 1.2-3.2 2.6l-1.5 1.3-0.7 0.6-0.2 0.2h-0.1l-0.3 0.4c-3.7 3.5-7 7.3-9.9 11.5-2.9 4.1-5.6 8.7-7.9 13.8l-1.4 2.8 1-1.8q-2.7 4.9-5.2 10.1l-1.3 2.6-0.3 0.7-0.1 0.2v0.1 0.1c0-0.1 0-0.1 0-0.1l-0.2 0.4-0.6 1.3q-1.2 2.7-2.4 5.5-0.3 0.6-0.5 1.2 0.9-1.1 1.9-2.1c6.9-6.8 15.5-12.1 24.9-15.3q1.8-0.6 3.6-1.1c1.2-0.3 2.4-0.6 3.6-0.9q1.9-0.4 3.7-0.7c0.7-0.1 1.3-0.2 1.9-0.3l0.8-0.1 1-0.1c5.1-0.6 10.2-0.6 15.3-0.1 5.1 0.5 10 1.6 14.7 3.1q1.8 0.5 3.5 1.1l0.5 0.1 0.2 0.1q-0.1 0-0.1 0l0.5 0.2c0.5 0.2 1.3 0.4 1.9 0.6q1.8 0.7 3.5 1.4 1.7 0.7 3.4 1.5 1.7 0.8 3.3 1.6 1.6 0.9 3.1 1.8 3.1 1.7 6 3.6 2.8 1.9 5.5 3.9 2.7 1.9 5.1 3.9c6.6 5.3 12.4 10.6 18.2 15.4q2.1 1.8 4.3 3.5l2.1 1.7 0.6 0.4 0.1 0.1 0.2 0.1 0.3 0.2 0.1 0.1q0 0 0 0v0.1q0.1 0 0.2 0.1l0.3 0.3c1 0.8 2 1.5 3.3 2.1q1.9 0.9 4.3 1.5c3.3 0.7 7.1 1 11.2 1.1 2.1 0.1 4.2 0.2 6.4 0.3 2.1 0.1 4.3 0.2 6.5 0.6l0.4 1.8-2.7 1.8q-1.3 0.9-2.6 1.7-2.7 1.8-5.5 3.4c-3.7 2.2-7.8 4.2-12.7 5.5q-1.8 0.5-3.8 0.8-1.9 0.3-4 0.3c-2.8 0.1-5.7-0.2-8.5-0.9q-0.5-0.1-1.1-0.2l-1.1-0.4-0.4-0.1h-0.1l-0.3-0.1-0.8-0.2q-1.7-0.5-3.3-1-3.2-1.1-6.4-2.4c-8.3-3.4-15.7-7.4-22.7-11.1-6.9-3.7-13.3-6.9-19.3-9.1q-1.1-0.4-2.2-0.8-1.2-0.4-2.2-0.7c-0.5-0.1-0.6-0.2-1-0.3l-0.8-0.2h-0.1q0 0 0 0 0 0 0 0 0 0-0.1 0h0.1q0 0-0.1 0-0.1-0.1-0.4-0.2h-0.2l-0.3-0.1q-1.2-0.4-2.3-0.7c-3.1-0.8-6.1-1.5-9.1-1.9q-4.5-0.7-9-1h-0.5-0.7-1.2q-1.2-0.1-2.3-0.1c-0.8 0.1-1.6 0-2.4 0.1l-2.4 0.1c-6.4 0.3-13 1.3-20 3.1q-3.6 1-7.4 2.3 6.3 4.5 12.3 9.5c8.6 7.1 16.6 14.9 24.1 23 14.9 16.3 27.8 33.9 39.8 51.7l4.5 6.6 0.6 0.9 0.3 0.4 0.4 0.7 1.1 1.8 2.2 3.5 2.1 3.5 2.1 3.6 2.1 3.5 2 3.6c5.3 9.7 10.2 19.5 14.7 29.5q7.3 15.9 13.3 32.3 5.3 14.4 9.8 29.1c6.4 21 11.5 42.2 15.6 63.6 4.1 21.4 7.2 43 9.3 64.6q3.3 32.5 3.9 65.2 0.3 16.3-0.1 32.8zm-91.1-464.9q0 0 0.1 0zm-182.8-77.6q0 0 0 0 0 0 0 0zm169.7 221q0 0 0 0zm-113.3-163.2q0 0 0-0.1v0.1z"/>
				<path id="&lt;Compound Path&gt;" fill-rule="evenodd" class="s0" d="m808.2 1382.7h52.2 17.8q-1.1-9.5-1.9-19.1c-1.3-14.6-2.3-29.2-2.9-43.9-1.4-29.3-1.6-58.8-0.6-88.2 1.1-29.4 3.3-58.8 6.9-87.9 3.7-29.2 8.7-58.1 15.4-86.6 6.7-28.5 15.1-56.6 25.4-83.9 5.2-13.6 10.8-27 17-40.2l2.4-4.9 2.4-5 2.4-4.8 2.5-4.8 2.6-4.9 1.3-2.4 0.2-0.3v-0.1q0.1 0 0.1-0.1l-0.2 0.4 0.3-0.6 0.7-1.3 5.7-9.6c15.1-25.7 30.9-50.6 49.1-73.2 9.1-11.3 18.8-21.9 29.1-31.8q5.6-5.3 11.5-10.2c-0.8 3.4-1.7 6.6-2.6 9.8l-1.6 5.5-0.4 1.3v0.1c0 0.1 0 0.6 0 0.7q0 0 0 0v0.2l-0.1 0.4-0.2 0.8c-0.2 1-0.4 2-0.6 3q-1.2 6-2 12c-1.1 7.9-1.8 15.9-2 24.1-0.2 4-0.1 8.1-0.1 12.2q0.1 6.2 0.4 12.5c0.8 16.8 2.7 34.2 7.3 51.5 2.4 8.7 5.3 17.3 9.3 25.6 1.9 4.2 4.1 8.3 6.6 12.2 1.2 1.9 2.5 3.9 3.9 5.8 1.4 1.8 2.9 3.7 4.5 5.4l2.6-0.6c0.6-2.3 1.1-4.6 1.6-6.8 0.5-2.2 0.9-4.4 1.4-6.5q1.3-6.4 2.5-12.7c1.6-8.3 3.1-16.3 4.5-24.4 2.8-16.1 5-32.3 6.1-49q0.4-6.3 0.6-12.7c0.1-4.2 0.2-8.5 0-12.9-0.4-8.6-1.4-17.4-3.4-26.1q-1.5-6.6-3.7-13.1c-0.4-1.1-0.8-2.2-1.2-3.3l-0.3-0.8-0.2-0.3-0.1-0.2q0-0.1 0-0.2c0 0.1 0.1 0.7 0.1 0.7q0 0 0 0h-0.1v-0.1l-0.6-1.8q-0.7-1.8-1.4-3.5-0.7-1.8-1.6-3.6-1.2-2.6-2.8-5.2 7.3 5.2 14.3 10c10.4 7.2 20.3 14 29.8 20.9 4.8 3.4 9.3 6.9 13.8 10.3 4.5 3.5 8.9 7.1 13.1 10.7 4.2 3.6 8.3 7.2 12.3 11q2.9 2.9 5.8 5.9 1.4 1.5 2.8 3l0.3 0.4 0.2 0.2c-0.1-0.1-0.2-0.2-0.2-0.3l0.1 0.2 0.8 0.8 1.2 1.5c7 8.3 13.4 17.3 19.2 27.1 5.9 9.9 11.2 20.5 16.5 31.7 5.3 11.1 10.5 22.8 16.1 34.6 2.8 5.9 5.8 11.8 8.9 17.6 1.6 3 3.2 5.9 5 8.8 1.7 2.9 3.5 5.8 5.4 8.6l2.6-0.7c0.3-3.4 0.4-6.8 0.6-10.1 0.1-3.3 0.2-6.6 0.3-9.9q0.2-9.9-0.1-19.8c-0.3-13.1-1.3-26.4-3.4-39.8-2.2-13.4-5.5-27-10.6-40.4-5.1-13.4-12-26.5-20.8-38.6l-1.7-2.3-0.7-1-1.1-1.4q-1.8-2.1-3.6-4.2-3.5-4.2-7.4-8.1c-5.1-5.3-10.5-10.2-16.3-14.7-5.8-4.4-11.8-8.5-18-12-6.3-3.6-12.7-6.7-19.3-9.4-6.8-2.8-13.8-5.1-20.9-7l13.6-0.3 17.2-0.4c5.7 0 11.3-0.1 17-0.2 5.6 0 11.3 0 16.9 0.1q4.2 0.1 8.4 0.2 2.1 0.1 4.2 0.2l4.2 0.2c22.4 1.4 44.6 4.6 66.7 10.4 11.1 2.9 22.1 6.4 33.2 10.8q8.4 3.3 16.8 7.1c2.8 1.3 5.6 2.7 8.5 4l8.6 4.2 2-1.8c-5.5-12.1-13.4-23-22.6-32.7-9.2-9.8-19.9-18.3-31.5-25.4-11.6-7.1-24.1-12.9-37-17.3-12.8-4.4-26.2-7.5-39.6-9.3q-2.5-0.4-5-0.7-2.6-0.3-5.1-0.5-5-0.5-10.1-0.7c-6.8-0.3-13.5-0.3-20.3 0q-6.1 0.4-12.3 1.1c13.6-6.2 28-10.5 43.3-13 15.4-2.6 31.6-3.3 48.5-2.4q6.3 0.4 12.8 1 3.3 0.3 6.6 0.7l3.3 0.4 0.8 0.1h0.4 0.2l0.1 0.1h0.1q0 0 0 0c0 0 0 0 0.3 0.1h0.4l0.6 0.1q0.6 0.1 1.2 0.2c3 0.3 5.9 0.3 8.7 0 2.8-0.3 5.3-0.9 7.8-1.6 4.9-1.5 9.3-3.5 13.6-5.6l-0.2-2.7c-4.7-1.4-9.4-2.4-13.6-3.7-4.1-1.3-7.7-3-10.3-5.1q-0.3-0.2-0.5-0.4c0-0.1-0.1-0.1-0.2-0.2l-0.3-0.2c0.4 0.1 0.2 0.1 0.2 0.1v-0.1h-0.1l-0.2-0.2-0.4-0.2-0.8-0.6q-1.5-1-3-2-3.1-2.1-6.3-4-6.4-3.7-13.2-6.8c-18.1-8.3-38.4-13.1-59.3-13.4-10.4-0.2-21 0.8-31.4 2.9-10.4 2.1-20.6 5.4-30.4 9.7-6.3 2.8-12.4 6.2-18.1 10q0.2-1.2 0.5-2.5l0.2-1.2v-0.3l0.1-0.1 0.2-1.2c0.5-2.1 1.1-4.2 1.7-6.2q1-3.1 2.2-6l0.6-1.5 0.3-0.8 0.5-1 0.2-0.6 0.3-0.7 0.6-1.3q1.3-2.7 2.9-5.2c1-1.8 2.2-3.4 3.4-5.1 5-6.6 11.7-13 19.8-19.2 8.1-6.2 17.4-12.2 27-18.6 4.8-3.2 9.7-6.6 14.5-10.1l3.7-2.7 1.8-1.4 0.9-0.7 0.4-0.3 0.3-0.2c-0.1 0-0.3 0.1-0.4 0.2q0 0 0 0l0.1-0.1 0.1-0.1c1.8-1.5 4-3.1 6.3-4.8 4.6-3.3 9.8-6.8 14.6-11 2.4-2.1 4.7-4.5 6.8-7.1q0.7-1 1.4-2 0.7-1 1.3-2.1c0.8-1.4 1.4-3 1.9-4.5l-2.2-1.5c-4.8 3.1-10 4.3-15.3 5.4-5.4 1-10.9 1.6-16.8 2.7-3 0.5-6.1 1.1-9.4 2.1l-0.2 0.1q0 0 0 0c-0.1 0-0.5 0.2-0.5 0.2l-0.2 0.1-0.5 0.2-1 0.3-2 0.6-4 1.2c-5.3 1.7-10.8 3.3-16.3 5.1-11 3.5-22.4 7.5-33.9 13.1-5.8 2.8-11.6 6-17.3 9.9q-4.2 2.9-8.3 6.3-4.2 3.4-8 7.3c-2.6 2.6-5 5.4-7.3 8.3q-1.8 2.2-3.4 4.5-1.6 2.4-3.1 4.8-0.7 1.2-1.4 2.4l-0.7 1.2-0.7 1.4-0.3 0.4-0.1 0.3q0 0 0 0 0 0 0 0l-0.1 0.1-0.6 1.2q-0.6 1.2-1.2 2.4-2.4 4.9-4.3 9.9c-1.3 3.3-2.4 6.7-3.4 10.2l-0.7 2.6-0.1 0.5v0.1l-0.2 0.6c-1.9-5.7-4.4-11.2-7.3-16.6-5.8-10.6-13.6-20.2-22.5-28.2l-0.9-0.7-0.7-0.6-0.3-0.3-1.7-1.4c-1.1-0.9-2.2-1.8-3.4-2.7q-3.4-2.7-7-5.1c-2.4-1.6-4.8-3.1-7.3-4.6-2.4-1.4-4.9-2.8-7.4-4.1-10-5.2-20.4-9-30.7-11.9-10.3-2.9-20.6-4.9-30.7-6.2-10.1-1.3-20.1-2-30-2.4-9.8-0.4-19.6-0.4-29.4-0.3-9.8 0.1-19.6 0.2-29.8 0.6l-0.8 2.6c8.3 6.1 17.3 11 26.3 15.5 9.1 4.4 18.2 8.3 27.3 12 18 7.3 35.6 13.8 51.3 21.2q11.8 5.6 22 12.1c1.7 1.1 3.4 2.2 5 3.4 1.6 1.1 3.2 2.3 4.8 3.5q2.3 1.7 4.5 3.6l2.2 1.9 1.1 1 0.3 0.2 0.1 0.1 0.5 0.4c5.3 5.1 9.9 10.5 14.1 16.5 4.3 6 8 12.6 11.5 19.9l1.8 4-1.3-2.5q3.9 7 7.5 14.5l1.7 3.7 0.5 1 0.1 0.3 0.1 0.2v0.1q0-0.1 0-0.1l0.3 0.5 0.8 1.9q1.8 3.9 3.5 7.9 0.3 0.8 0.7 1.6-1.4-1.5-2.8-2.9c-9.8-9.8-22.1-17.3-35.7-21.9q-2.5-0.9-5.1-1.6c-1.8-0.5-3.5-1-5.3-1.4q-2.6-0.5-5.3-1c-0.9-0.2-1.8-0.3-2.7-0.4l-1.1-0.2-1.5-0.1c-7.3-0.9-14.7-0.9-22-0.2-7.3 0.8-14.4 2.4-21.1 4.5q-2.6 0.7-5 1.6l-0.7 0.2-0.3 0.1q0.3-0.1 0.5-0.1l-1.1 0.3c-0.8 0.3-1.9 0.7-2.7 1q-2.6 0.9-5 1.9-2.5 1.1-4.9 2.2-2.4 1.1-4.7 2.3-2.4 1.2-4.6 2.5-4.4 2.5-8.5 5.3-4.1 2.7-7.9 5.5-3.9 2.8-7.4 5.7c-9.5 7.6-17.8 15.2-26.1 22.1q-3.1 2.5-6.1 5l-3.2 2.4-0.7 0.6-0.2 0.2-0.3 0.1-0.4 0.3-0.1 0.1q-0.1 0.1-0.1 0.1v0.1q-0.1 0-0.2 0.1l-0.5 0.5c-1.4 1.1-2.9 2.1-4.7 3q-2.7 1.3-6.2 2.1c-4.7 1.1-10.3 1.5-16.2 1.7-2.9 0.1-5.9 0.1-9 0.3-3.1 0.2-6.3 0.4-9.4 0.9l-0.6 2.6 3.9 2.6c1.2 0.8 2.5 1.6 3.8 2.5 2.5 1.7 5.1 3.3 7.8 4.9 5.4 3.1 11.3 6 18.2 7.8q2.7 0.7 5.5 1.1 2.8 0.4 5.8 0.5c3.9 0.1 8.1-0.3 12.2-1.3q0.7-0.1 1.5-0.3l1.6-0.5 0.6-0.2h0.2l0.3-0.1 1.2-0.4q2.4-0.7 4.7-1.4c3.2-1.1 6.2-2.2 9.2-3.4 11.9-4.8 22.7-10.7 32.6-16 10-5.2 19.2-9.9 27.8-13.1q1.6-0.6 3.2-1.1 1.6-0.5 3.2-1c0.6-0.2 0.8-0.2 1.4-0.4l1.1-0.3h0.1l0.1-0.1q0 0 0 0 0 0 0 0c0.1 0 0.4-0.1 0.7-0.2l0.2-0.1 0.5-0.1q1.6-0.5 3.3-1c4.4-1.2 8.8-2 13-2.7 4.3-0.7 8.7-1.1 13-1.4h0.7 1.1l1.6-0.1q1.7 0 3.4 0c1.1 0 2.3 0 3.4 0l3.4 0.2c9.2 0.5 18.8 1.9 28.7 4.5q5.3 1.4 10.8 3.2-9.2 6.5-17.8 13.7c-12.4 10.2-23.8 21.4-34.5 33.1-21.5 23.4-40 48.7-57.3 74.2l-6.5 9.6-0.8 1.2-0.4 0.6-0.6 1-1.6 2.5-3.1 5.1-3.1 5-3 5.2-2.9 5.1-2.9 5.2c-7.7 13.8-14.7 27.9-21.2 42.2-13.1 28.7-24 58.3-33.2 88.3-8.4 27.7-15.3 55.8-21 84.2q-0.7 3.5-1.4 7.1c-5.9 30.8-10.3 61.8-13.4 92.9q-0.2 2.1-0.4 4.3-4.3 44.5-5.1 89.3c-0.3 15.7-0.3 31.3 0.1 47.1q0.1 7.4 0.4 15zm227.5-671.4z"/>
				<path id="&lt;Path&gt;" class="s2" d="m1734.3 1456.3l655.2-1134.8 655.2 1134.8z"/>
				<path id="&lt;Path&gt;" class="s3" d="m2032.9 1456.3l655.2-1134.8 655.1 1134.8z"/>
				<path id="&lt;Path&gt;" class="s4" d="m2619.4 1456.3l460.6-797.7 460.5 797.7z"/>
				<path id="&lt;Path&gt;" class="s5" d="m3540.5 1456.3c-363.7-78.7-941.5-125.7-1631.8-125.7-690.4 0-1318.7 47-1682.5 125.7z"/>
				<path id="&lt;Path&gt;" class="s0" d="m226.2 1456.3c69.4-1.1 138.7-1.5 207.9-1.8q103.8-0.2 207.5 0.1c138.3 0.4 276.4 1.2 414.4 2.3 276.1 2.1 551.9 4.8 827.5 5.2 137.8 0.2 275.6-0.3 413.5-1.1l206.9-1.3 206.9-1.5 207.1-1.5 207.3-1.1q103.7-0.4 207.5-0.4c69.2 0.1 138.4 0.2 207.8 1.1-8.5 1.6-17.1 3-25.6 4.5l-25.7 4.1c-17.1 2.8-34.3 5.4-51.4 8-34.3 5.1-68.7 9.9-103 14.5-68.7 9.1-137.5 17.3-206.4 24.8-68.9 7.4-137.9 14.2-206.9 20.2-69 6.1-138.1 11.5-207.2 16.3-276.5 19-553.6 28.4-831 27.7-138.6-0.4-277.2-3.2-415.7-8.2-69.2-2.6-138.4-5.8-207.6-9.4-69.2-3.7-138.3-7.8-207.4-12.7-138.2-9.6-276.2-21.6-414-36.1-68.9-7.3-137.7-15.2-206.5-24-68.7-8.8-137.4-18.3-205.9-29.7z"/>
			</g>
		</g>
	</g>
</svg>